<svg xmlns="http://www.w3.org/2000/svg" xml:space="preserve" viewBox="0 0 281.41 282.71"><linearGradient id="a" x1="141.372" x2="139.902" y1="9.434" y2="272.484" gradientTransform="rotate(-7.793 140.618 140.981)" gradientUnits="userSpaceOnUse"><stop offset="0" style="stop-color:#68cbdb"/><stop offset=".165" style="stop-color:#3eb1cc"/><stop offset=".391" style="stop-color:#2d8db7"/><stop offset=".517" style="stop-color:#3976aa"/><stop offset=".677" style="stop-color:#555f98"/><stop offset=".706" style="stop-color:#5a5d96"/><stop offset="1" style="stop-color:#906197"/></linearGradient><path d="M267.9 89.74c2.72 19.01 5.29 38.05 7.81 57.09.85 6.41 1.81 12.8 2.63 19.21 2.27 17.72 5.54 28.38.09 46.32-7.81 25.7-30.19 46.58-56.21 52.94L95.78 282.6c-31.35 1.78-64.17-19.12-75.01-48.71-.92-2.51-2.33-6.49-2.86-8.98-2.09-9.9-7.73-56.19-9.73-71.09-1.36-10.14-2.84-20.27-4.16-30.41C.78 98.49-4.6 82.13 7.61 58.38c10.38-20.18 29.53-35.51 51.61-40.9C122.84 8.77 122.84 8.77 186.47.07c29.42-1.35 61.1 17.71 72.85 44.79 5.44 12.55 6.56 30.78 8.58 44.88" style="fill:url(#a)"/><path d="M93.73 88.75c3.05-.76 6.07-.4 9.13.09 46.52 15.49 46.52 15.49 93.04 30.99 10.23 3.69 13.53 16.04 6.34 24.16-4.29 4.85-71.4 48.43-83.25 57.78-8.64 6.05-20.52 1.98-23.25-8.33-1.17-4.43-12.35-86.16-12.42-90.74-.09-6.06 4.33-12.43 10.41-13.95" style="fill:#fff"/></svg>