<svg xmlns="http://www.w3.org/2000/svg" xml:space="preserve" id="Layer_1" x="0" y="0" version="1.1" viewBox="0 0 1673.77 384.91"><style>.st2{fill:#2d8db7}</style><linearGradient id="SVGID_1_" x1="198.9" x2="196.898" y1="-80.581" y2="277.56" gradientTransform="rotate(-7.793 880.45 192.397)" gradientUnits="userSpaceOnUse"><stop offset="0" style="stop-color:#68cbdb"/><stop offset=".165" style="stop-color:#3eb1cc"/><stop offset=".391" style="stop-color:#2d8db7"/><stop offset=".517" style="stop-color:#3976aa"/><stop offset=".677" style="stop-color:#555f98"/><stop offset=".706" style="stop-color:#5a5d96"/><stop offset="1" style="stop-color:#906197"/></linearGradient><path d="M364.75 122.19c3.7 25.88 7.2 51.81 10.64 77.72 1.15 8.72 2.46 17.42 3.58 26.15 3.09 24.12 7.55 38.64.12 63.07-10.63 34.98-41.11 63.41-76.53 72.08l-172.15 23.56c-42.68 2.43-87.36-26.04-102.13-66.31-1.25-3.41-3.18-8.83-3.89-12.23-2.85-13.48-10.52-76.5-13.25-96.79-1.85-13.81-3.87-27.59-5.67-41.4-4.41-33.93-11.73-56.2 4.9-88.54C24.49 52 50.58 31.13 80.63 23.8 167.25 11.95 167.25 11.95 253.87.09c40.05-1.83 83.18 24.11 99.18 60.98 7.42 17.09 8.95 41.91 11.7 61.12" style="fill:url(#SVGID_1_)"/><path d="M127.61 120.83c4.15-1.04 8.27-.54 12.43.12 63.33 21.09 63.33 21.09 126.67 42.19 13.93 5.03 18.41 21.84 8.64 32.89-5.84 6.6-97.21 65.93-113.35 78.67-11.76 8.23-27.94 2.69-31.66-11.34-1.6-6.03-16.82-117.31-16.91-123.54-.12-8.24 5.9-16.91 14.18-18.99" style="fill:#fff"/><path d="M461.52 241.32c-3.62 0-6.4-1.04-8.34-3.11-1.94-2.07-2.91-4.92-2.91-8.54V113.05c0-3.75 1.03-6.63 3.1-8.64 2.07-2 4.92-3.01 8.54-3.01 3.23 0 5.79.62 7.67 1.84 1.87 1.23 3.59 3.33 5.14 6.31l47.93 88.68h-6.21l47.93-88.68c1.55-2.97 3.23-5.08 5.05-6.31 1.81-1.23 4.33-1.84 7.57-1.84 3.62 0 6.4 1 8.34 3.01 1.94 2.01 2.91 4.88 2.91 8.64v116.63c0 3.62-.94 6.47-2.81 8.54-1.88 2.07-4.69 3.11-8.44 3.11-3.62 0-6.4-1.04-8.34-3.11-1.94-2.07-2.91-4.92-2.91-8.54v-89.85H570l-40.75 74.32c-1.29 2.2-2.65 3.82-4.08 4.85-1.43 1.04-3.37 1.55-5.82 1.55-2.46 0-4.46-.55-6.02-1.65-1.55-1.1-2.91-2.68-4.08-4.75l-41.14-74.52h4.66v90.04c0 3.62-.94 6.47-2.81 8.54-1.87 2.07-4.69 3.11-8.44 3.11M640.05 276.25c-2.85 0-5.18-.75-6.99-2.23-1.81-1.49-2.88-3.46-3.2-5.92-.32-2.46.1-5.05 1.26-7.76l13.2-29.3v10.09L609 159.43c-1.16-2.84-1.55-5.5-1.16-7.96.39-2.46 1.58-4.43 3.59-5.92 2-1.49 4.75-2.23 8.25-2.23 2.97 0 5.37.68 7.18 2.04 1.81 1.36 3.43 3.91 4.85 7.67l26.2 65.4h-5.82l26.78-65.59c1.42-3.62 3.1-6.11 5.05-7.47 1.94-1.36 4.53-2.04 7.76-2.04 2.84 0 5.11.75 6.79 2.23 1.68 1.49 2.72 3.43 3.1 5.82.39 2.4-.07 5.02-1.36 7.86l-47.16 107.7c-1.68 3.62-3.49 6.08-5.43 7.37-1.94 1.29-4.46 1.94-7.57 1.94M784.62 241.32c-3.62 0-6.4-1.04-8.34-3.11-1.94-2.07-2.91-4.92-2.91-8.54V113.05c0-3.75 1.03-6.63 3.1-8.64 2.07-2 4.92-3.01 8.54-3.01 3.23 0 5.79.62 7.67 1.84 1.87 1.23 3.59 3.33 5.14 6.31l47.93 88.68h-6.21l47.93-88.68c1.55-2.97 3.23-5.08 5.05-6.31 1.81-1.23 4.33-1.84 7.57-1.84 3.62 0 6.4 1 8.34 3.01 1.94 2.01 2.91 4.88 2.91 8.64v116.63c0 3.62-.94 6.47-2.81 8.54-1.88 2.07-4.69 3.11-8.44 3.11-3.62 0-6.4-1.04-8.34-3.11-1.94-2.07-2.91-4.92-2.91-8.54v-89.85h4.27l-40.75 74.32c-1.29 2.2-2.65 3.82-4.08 4.85-1.42 1.04-3.37 1.55-5.82 1.55-2.46 0-4.46-.55-6.02-1.65-1.55-1.1-2.91-2.68-4.08-4.75l-41.14-74.52h4.66v90.04c0 3.62-.94 6.47-2.81 8.54-1.89 2.07-4.7 3.11-8.45 3.11M982.36 241.71c-9.83 0-18.37-2-25.62-6.02-7.25-4.01-12.87-9.73-16.88-17.17-4.01-7.44-6.02-16.2-6.02-26.29 0-7.63 1.13-14.46 3.4-20.47 2.26-6.02 5.53-11.19 9.8-15.52 4.27-4.33 9.38-7.63 15.33-9.9 5.95-2.26 12.61-3.4 19.99-3.4 9.83 0 18.37 2.01 25.62 6.02 7.24 4.01 12.87 9.7 16.88 17.08 4.01 7.37 6.02 16.11 6.02 26.2 0 7.63-1.13 14.49-3.4 20.57s-5.53 11.29-9.8 15.62c-4.27 4.34-9.38 7.63-15.33 9.9-5.95 2.25-12.61 3.38-19.99 3.38m0-18.44c4.79 0 8.99-1.16 12.61-3.49 3.62-2.33 6.43-5.79 8.44-10.38 2-4.59 3.01-10.32 3.01-17.17 0-10.35-2.2-18.08-6.6-23.19-4.4-5.11-10.22-7.67-17.46-7.67-4.79 0-8.99 1.13-12.61 3.4-3.62 2.27-6.44 5.69-8.44 10.29-2.01 4.59-3.01 10.32-3.01 17.17 0 10.22 2.2 17.95 6.6 23.19 4.39 5.24 10.22 7.85 17.46 7.85M1087.34 241.32c-3.24 0-6.05-.84-8.44-2.52-2.39-1.68-4.37-4.27-5.92-7.76l-30.86-71.61c-1.16-2.84-1.58-5.5-1.26-7.96.32-2.46 1.49-4.43 3.49-5.92 2-1.49 4.75-2.23 8.25-2.23 2.97 0 5.37.68 7.18 2.04 1.81 1.36 3.43 3.91 4.85 7.67l26.2 65.4h-5.82l26.97-65.59c1.42-3.62 3.07-6.11 4.95-7.47 1.87-1.36 4.43-2.04 7.67-2.04 2.84 0 5.11.75 6.79 2.23 1.68 1.49 2.72 3.43 3.11 5.82.39 2.4-.07 5.02-1.36 7.86l-31.44 71.8c-1.42 3.49-3.33 6.08-5.72 7.76-2.4 1.68-5.27 2.52-8.64 2.52M1163.22 125.47c-4.53 0-8.05-1.13-10.58-3.4-2.52-2.26-3.78-5.4-3.78-9.41 0-4.14 1.26-7.31 3.78-9.51 2.52-2.2 6.05-3.3 10.58-3.3 4.66 0 8.21 1.1 10.67 3.3 2.46 2.2 3.69 5.37 3.69 9.51 0 4.01-1.23 7.15-3.69 9.41-2.46 2.27-6.01 3.4-10.67 3.4m0 115.66c-3.88 0-6.86-1.16-8.93-3.49-2.07-2.33-3.11-5.56-3.11-9.7v-71.22c0-4.27 1.03-7.53 3.11-9.8 2.07-2.26 5.04-3.4 8.93-3.4 3.88 0 6.89 1.13 9.02 3.4s3.2 5.53 3.2 9.8v71.22c0 4.14-1.04 7.37-3.1 9.7-2.07 2.32-5.11 3.49-9.12 3.49M1247.44 241.71c-10.74 0-19.99-2-27.75-6.02-7.76-4.01-13.75-9.7-17.95-17.08-4.21-7.37-6.31-16.11-6.31-26.2 0-9.83 2.04-18.44 6.11-25.81 4.07-7.37 9.7-13.16 16.88-17.37 7.18-4.2 15.36-6.31 24.55-6.31 6.72 0 12.77 1.1 18.14 3.3 5.37 2.2 9.96 5.37 13.78 9.51 3.81 4.14 6.72 9.15 8.73 15.04 2 5.89 3.01 12.52 3.01 19.89 0 2.33-.81 4.11-2.43 5.34-1.62 1.23-3.91 1.84-6.89 1.84h-62.29v-13.97h54.53l-3.1 2.91c0-5.95-.87-10.93-2.62-14.94s-4.27-7.08-7.57-9.22c-3.3-2.13-7.41-3.2-12.32-3.2-5.43 0-10.06 1.26-13.88 3.78-3.82 2.52-6.73 6.08-8.73 10.67-2.01 4.59-3.01 10.06-3.01 16.4v1.36c0 10.61 2.49 18.53 7.47 23.77 4.98 5.24 12.32 7.86 22.02 7.86 3.36 0 7.15-.42 11.35-1.26 4.2-.84 8.18-2.3 11.93-4.37 2.72-1.55 5.11-2.23 7.18-2.04 2.07.19 3.72.94 4.95 2.23s1.97 2.88 2.23 4.75c.26 1.88-.1 3.78-1.07 5.72-.97 1.94-2.62 3.62-4.95 5.04-4.53 2.85-9.74 4.95-15.62 6.31-5.86 1.39-11.33 2.07-16.37 2.07M1373.38 239.77c-4.01 0-7.12-1.13-9.31-3.4-2.2-2.26-3.3-5.4-3.3-9.41V114.99c0-4.14 1.07-7.28 3.2-9.41s5.21-3.2 9.22-3.2c4.01 0 7.08 1.07 9.22 3.2 2.13 2.13 3.2 5.27 3.2 9.41v103.62h56.28c3.49 0 6.18.91 8.05 2.72 1.87 1.81 2.81 4.4 2.81 7.76 0 3.37-.94 5.99-2.81 7.86-1.88 1.88-4.56 2.81-8.05 2.81h-68.51zM1479.52 125.47c-4.53 0-8.05-1.13-10.58-3.4-2.52-2.26-3.78-5.4-3.78-9.41 0-4.14 1.26-7.31 3.78-9.51 2.52-2.2 6.05-3.3 10.58-3.3 4.66 0 8.21 1.1 10.67 3.3 2.46 2.2 3.69 5.37 3.69 9.51 0 4.01-1.23 7.15-3.69 9.41-2.45 2.27-6.01 3.4-10.67 3.4m0 115.66c-3.88 0-6.86-1.16-8.93-3.49-2.07-2.33-3.11-5.56-3.11-9.7v-71.22c0-4.27 1.03-7.53 3.11-9.8 2.07-2.26 5.04-3.4 8.93-3.4 3.88 0 6.89 1.13 9.02 3.4s3.2 5.53 3.2 9.8v71.22c0 4.14-1.04 7.37-3.1 9.7-2.07 2.32-5.11 3.49-9.12 3.49M1551.71 241.71c-5.56 0-11.45-.58-17.66-1.75-6.21-1.17-11.77-3.17-16.69-6.02-2.07-1.29-3.53-2.81-4.37-4.56-.84-1.75-1.17-3.49-.97-5.24.19-1.75.84-3.27 1.94-4.56 1.1-1.29 2.52-2.13 4.27-2.52 1.75-.39 3.65-.06 5.72.97 5.17 2.46 10.02 4.17 14.55 5.14 4.53.97 8.99 1.46 13.39 1.46 6.21 0 10.83-1.07 13.87-3.2 3.04-2.13 4.56-4.95 4.56-8.44 0-2.97-1-5.27-3.01-6.89s-5.01-2.81-9.02-3.59l-19.41-3.69c-8.02-1.55-14.14-4.49-18.34-8.83-4.21-4.33-6.31-9.93-6.31-16.79 0-6.21 1.71-11.58 5.14-16.11 3.43-4.53 8.18-8.02 14.26-10.48 6.08-2.46 13.07-3.69 20.96-3.69 5.69 0 11.03.62 16.01 1.84 4.98 1.23 9.8 3.14 14.46 5.73 1.94 1.04 3.27 2.4 3.98 4.07.71 1.68.87 3.4.49 5.14-.39 1.75-1.17 3.3-2.33 4.66s-2.62 2.2-4.37 2.52c-1.75.32-3.72-.03-5.92-1.07-4.01-2.07-7.86-3.56-11.55-4.46-3.69-.9-7.21-1.36-10.58-1.36-6.34 0-11.03 1.1-14.07 3.3-3.04 2.2-4.56 5.11-4.56 8.73 0 2.72.9 4.98 2.72 6.79 1.81 1.81 4.59 3.04 8.34 3.69l19.41 3.69c8.41 1.55 14.78 4.4 19.11 8.54 4.33 4.14 6.5 9.7 6.5 16.69 0 9.45-3.69 16.85-11.06 22.22-7.34 5.39-17.17 8.07-29.46 8.07M1654.17 241.71c-8.41 0-15.43-1.42-21.05-4.27-5.63-2.84-9.8-7.02-12.52-12.52-2.72-5.5-4.08-12.32-4.08-20.47v-41.33h-10.09c-3.11 0-5.5-.81-7.18-2.43-1.68-1.62-2.52-3.85-2.52-6.69 0-2.97.84-5.24 2.52-6.79 1.68-1.55 4.08-2.33 7.18-2.33h10.09v-17.66c0-4.01 1.07-7.05 3.2-9.12 2.13-2.07 5.14-3.1 9.02-3.1s6.86 1.04 8.93 3.1c2.07 2.07 3.11 5.11 3.11 9.12v17.66h20.57c3.11 0 5.5.78 7.18 2.33 1.68 1.55 2.52 3.82 2.52 6.79 0 2.85-.84 5.08-2.52 6.69-1.68 1.62-4.08 2.43-7.18 2.43h-20.57v39.97c0 6.21 1.36 10.87 4.08 13.97 2.72 3.1 7.11 4.66 13.2 4.66 2.2 0 4.14-.19 5.82-.58 1.68-.39 3.17-.65 4.46-.78 1.55-.13 2.84.36 3.88 1.46 1.03 1.1 1.55 3.33 1.55 6.7 0 2.59-.42 4.88-1.26 6.89-.84 2.01-2.36 3.4-4.56 4.17-1.68.52-3.88 1-6.6 1.46-2.72.44-5.11.67-7.18.67" class="st2"/></svg>